<svg xmlns="http://www.w3.org/2000/svg" xmlns:xlink="http://www.w3.org/1999/xlink" viewBox="0 0 1920 1080">
  <defs>
    <style>
      .cls-1 {
        fill: url(#linear-gradient);
      }

      .cls-2 {
        clip-path: url(#clip-bgns);
      }

      .cls-3 {
        clip-path: url(#clip-path);
      }

      .cls-4 {
        opacity: 0.89;
      }

      .cls-5 {
        fill: #fff;
      }
    </style>
    <linearGradient id="linear-gradient" x1="0.5" x2="0.5" y2="1" gradientUnits="objectBoundingBox">
      <stop offset="0" stop-color="#002549"/>
      <stop offset="0.234" stop-color="#002549"/>
      <stop offset="0.454" stop-color="#043564"/>
      <stop offset="0.618" stop-color="#052c53"/>
      <stop offset="0.707" stop-color="#032e58"/>
      <stop offset="1" stop-color="#053d67"/>
    </linearGradient>
    <clipPath id="clip-path">
      <rect id="Rectangle_41" data-name="Rectangle 41" class="cls-1" width="2721" height="1160" transform="translate(-277)"/>
    </clipPath>
    <clipPath id="clip-bgns">
      <rect width="1920" height="1080"/>
    </clipPath>
  </defs>
  <g id="bgns" class="cls-2">
    <rect class="cls-5" width="1920" height="1080"/>
    <g id="Mask_Group_1" data-name="Mask Group 1" class="cls-3" transform="translate(1229 1120) rotate(180)">
      <g id="wave" class="cls-4" transform="translate(-129.076 -4.313)">
        <g id="OBJECTS">
          <path id="Path_1472" data-name="Path 1472" class="cls-1" d="M2578.8,1168.625H736.5c-2.216-8.483-279.7,7.821-283.476,0-22.921-47.507-80.815,4.764-126.285-6.979-11.736-3.026,134.855,98.52,147.333,63.667,8.908-24.881-8-94-8-94s48.551-60.252,42-106c-4.713-32.91-62.258-54.247-73.445-58.159-54.886-19.2-75.982-1.467-95.093-66.64-22.147-75.52-18.863-160.987-41.753-237.371-25.554-85.367-82.67-98.542-150.1-112.914C92.3,538.419,38.005,505.316,12.916,441.574-15.673,368.882,8.7,297.421,32.925,228.888,58.51,156.462,48.908,76.451,52.656,0H2578.8Z" transform="translate(-0.001 -1)"/>
        </g>
      </g>
    </g>
  </g>
</svg>
